<?xml version="1.0" encoding="UTF-8" standalone="no"?>
<svg
   height="533.29022"
   width="533.33331"
   viewBox="-204.79995 -341.33325 788.85904 1365.2226"
   version="1.1"
   id="svg2"
   xmlns="http://www.w3.org/2000/svg"
   xmlns:svg="http://www.w3.org/2000/svg">
  <defs
     id="defs2" />
  <path
     d="m 872.29612,341.33375 c 0,-377.026997 -305.64,-682.667 -682.666,-682.667 -377.027,0 -682.667,305.640003 -682.667,682.667 0,340.738 249.641,623.16 576.000009,674.37305 V 538.66675 h -173.333 v -197.333 h 173.333 v -150.4 c 0,-171.093997 101.916991,-265.599997 257.852991,-265.599997 74.69,0 152.814,13.333 152.814,13.333 V 106.66675 h -86.083 c -84.804,0 -111.25,52.623 -111.25,106.61 v 128.057 h 189.333 l -30.267,197.333 h -159.067 v 477.04005 c 326.359,-51.21305 576,-333.63505 576,-674.37305"
     fill="#100f0d"
     id="path1"
     style="fill:#aeb6c2;fill-opacity:1" />
  <path
     d="m 94.991035,538.55651 30.267005,-197.333 H -64.075965 v -128.058 c 0,-53.986 26.447,-106.609 111.251,-106.609 h 86.083005 v -168 c 0,0 -78.124005,-13.333 -152.814005,-13.333 -155.935995,0 -257.852995,94.506 -257.852995,265.6 v 150.4 h -173.333 v 197.333 h 173.333 v 477.04009 a 687.805,687.805 0 0 0 106.667,8.2929 c 36.288,0 71.909995,-2.8399 106.665995,-8.2929 V 538.55651 h 159.067"
     fill="#fff"
     id="path2"
     style="fill:none" />
</svg>
