<?xml version="1.0" encoding="UTF-8" standalone="no"?>
<svg
   height="1611"
   preserveAspectRatio="xMidYMid"
   width="2500"
   viewBox="0 0 256 167.509"
   version="1.1"
   id="svg1"
   xmlns="http://www.w3.org/2000/svg"
   xmlns:svg="http://www.w3.org/2000/svg">
  <defs
     id="defs1" />
  <path
     d="M 247.942,23.314 256,2.444 255.65,1.151 175.933,22.154 C 184.433,9.86 181.513,0 181.513,0 c 0,0 -25.457,16.257 -44.709,15.832 -19.251,-0.426 -25.457,-5.564 -54.977,3.853 -29.52,9.41 -37.86,38.295 -46.419,44.5 C 26.849,70.39 0,90.603 0,90.603 l 0.058,0.359 24.207,-7.707 c 0,0 -6.64,6.255 -20.745,25.265 l -0.659,-0.609 0.025,0.134 c 0,0 11.336,17.324 22.463,14.121 1.118,-0.325 2.377,-0.859 3.753,-1.56 4.48,2.495 10.327,4.947 16.783,5.622 0,0 -4.37,-5.08 -8.016,-10.86 0.984,-0.634 1.994,-1.293 3.02,-1.96 l -0.476,0.334 9.217,3.386 -1.017,-8.666 c 0.033,-0.017 0.058,-0.042 0.091,-0.059 l 9.059,3.328 -1.126,-7.882 a 76.868,76.868 0 0 1 3.436,-1.693 l 9.443,-35.717 39.045,-26.634 -3.103,7.808 c -7.916,19.468 -22.78,24.064 -22.78,24.064 l -6.206,2.352 c -4.612,5.455 -6.556,6.798 -8.14,25.107 3.72,-0.934 7.273,-1.16 10.492,-0.292 16.683,4.496 22.463,24.599 17.967,30.162 -1.126,1.393 -3.803,3.77 -7.181,6.565 h -6.773 l -0.092,5.488 c -0.234,0.184 -0.467,0.359 -0.693,0.542 h -6.89 l -0.083,5.355 c -0.609,0.468 -1.218,0.918 -1.801,1.36 -6.473,0.133 -14.673,-5.514 -14.673,-5.514 0,5.139 4.28,13.046 4.28,13.046 0,0 0.283,-0.133 0.758,-0.367 -0.417,0.309 -0.65,0.476 -0.65,0.476 0,0 17.324,11.552 28.235,7.273 9.7,-3.804 34.816,-23.606 56.495,-32.981 l 65.603,-17.283 8.65,-22.413 -49.997,13.17 V 83.597 l 58.664,-15.457 8.65,-22.413 -67.297,17.734 V 43.324 Z"
     id="path1"
     style="fill:#f8f8fa;fill-opacity:1" />
</svg>
