<?xml version="1.0" encoding="UTF-8" standalone="no"?>
<svg
   height="533.33386"
   width="547.00067"
   viewBox="-74.4 -120.90175 293.92169 483.60748"
   version="1.1"
   id="svg1"
   xmlns="http://www.w3.org/2000/svg"
   xmlns:svg="http://www.w3.org/2000/svg"
   xmlns:rdf="http://www.w3.org/1999/02/22-rdf-syntax-ns#"
   xmlns:cc="http://creativecommons.org/ns#"
   xmlns:dc="http://purl.org/dc/elements/1.1/">
  <title
     id="title1">mail</title>
  <defs
     id="defs1" />
  <path
     d="m -9.5391625,268.49825 c 0,2 -2.2999995,3.6 -5.1999995,3.6 -3.3,0.3 -5.6,-1.3 -5.6,-3.6 0,-2 2.3,-3.6 5.2,-3.6 3,-0.3 5.5999995,1.3 5.5999995,3.6 z m -31.1000025,-4.5 c -0.7,2 1.3,4.3 4.3,4.9 2.600003,1 5.600003,0 6.200003,-2 0.6,-2 -1.3,-4.3 -4.3,-5.2 -2.600003,-0.7 -5.500003,0.3 -6.200003,2.3 z m 44.2000025,-1.7 c -2.90001005,0.7 -4.9000101,2.6 -4.6000001,4.9 0.3,2 2.9000001,3.3 5.9000001,2.6 2.9,-0.7 4.8999999,-2.6 4.6,-4.6 -0.30001,-1.9 -3,-3.2 -5.9,-2.9 z m 65.7999955,-383.2 c -138.699998,0 -244.799993,105.299999 -244.799993,244 0,110.9 69.8,205.8 169.4999975,239.2 12.8,2.3 17.3000005,-5.6 17.3000005,-12.1 0,-6.2 -0.3,-40.4 -0.3,-61.4 0,0 -70.000003,15 -84.700003,-29.8 0,0 -11.4,-29.1 -27.799995,-36.6 0,0 -22.9,-15.7 1.599995,-15.4 0,0 24.9,2 38.6,25.8 21.9,38.6 58.5999925,27.5 72.899993,20.9 2.30001,-16 8.80001,-27.1 16.000005,-33.7 -55.899995,-6.2 -112.299998,-14.3 -112.299998,-110.5 0,-27.500001 7.6,-41.300001 23.6,-58.900001 -2.6,-6.5 -11.1,-33.3 2.6,-67.9 20.9,-6.5 69.000003,27 69.000003,27 19.999995,-5.6 41.499995,-8.5 62.799995,-8.5 21.3,0 42.800007,2.9 62.800007,8.5 0,0 48.1,-33.6 69,-27 13.7,34.7 5.2,61.4 2.6,67.9 16,17.7 25.8,31.5 25.8,58.900001 0,96.5 -58.9,104.2 -114.8,110.5 9.2,7.9 17,22.9 17,46.4 0,33.7 -0.3,75.4 -0.3,83.6 0,6.5 4.6,14.4 17.3,12.1 99.99999,-33.2 167.79999,-128.1 167.79999,-239 0,-138.700001 -112.49999,-244 -251.199997,-244 z m -147.599998,344.9 c -1.3,1 -1,3.3 0.7,5.2 1.6,1.6 3.9,2.3 5.2,1 1.3,-1 1,-3.3 -0.7,-5.2 -1.6,-1.6 -3.9,-2.3 -5.2,-1 z m -10.8,-8.1 c -0.7,1.3 0.3,2.9 2.3,3.9 1.6,1 3.6,0.7 4.3,-0.7 0.7,-1.3 -0.3,-2.9 -2.3,-3.9 -2,-0.6 -3.6,-0.3 -4.3,0.7 z m 32.4,35.6 c -1.6,1.3 -1,4.3 1.3,6.2 2.3,2.3 5.2,2.6 6.5,1 1.3,-1.3 0.7,-4.3 -1.3,-6.2 -2.2,-2.3 -5.2,-2.6 -6.5,-1 z m -11.4,-14.7 c -1.6,1 -1.6,3.6 0,5.9 1.6,2.3 4.3,3.3 5.6,2.3 1.6,-1.3 1.6,-3.9 0,-6.2 -1.4,-2.3 -4,-3.3 -5.6,-2 z"
     id="path1"
     style="fill:#aeb6c2;fill-opacity:1" />
  <metadata
     id="metadata1">
    <rdf:RDF>
      <cc:Work
         rdf:about="">
        <dc:title>mail</dc:title>
      </cc:Work>
    </rdf:RDF>
  </metadata>
</svg>
